<svg xmlns="http://www.w3.org/2000/svg" viewBox="0 0 100 100" width="512" height="512">
  <rect width="100" height="100" fill="#F5E6D3"/>
  <g stroke="#2C2C2C" fill="none">
    <path d="M22,28 Q26,18 32,22 L34,32 Q28,36 22,28Z" fill="none" stroke="#2C2C2C" stroke-width="3" stroke-linejoin="round"/><path d="M30,36 L30,76" fill="none" stroke="#2C2C2C" stroke-width="3" stroke-linecap="round"/><path d="M50,20 L54,16 L68,16 L74,22 Q76,30 72,34 L68,28 L70,40 L64,44 L62,32 L56,42 L52,34 L54,26 L50,20Z" fill="none" stroke="#2C2C2C" stroke-width="3" stroke-linejoin="round"/><path d="M58,44 L58,80" fill="none" stroke="#2C2C2C" stroke-width="2.5" stroke-linecap="round"/><path d="M50,60 L66,60" fill="none" stroke="#2C2C2C" stroke-width="2" stroke-linecap="round"/><path d="M50,70 L66,70" fill="none" stroke="#2C2C2C" stroke-width="2" stroke-linecap="round"/>
  </g>
</svg>