<svg xmlns="http://www.w3.org/2000/svg" viewBox="0 0 100 100" width="512" height="512">
  <rect width="100" height="100" fill="#F5E6D3"/>
  <path d="M18,30 Q22,15 30,20 L32,32 Q24,38 18,30Z" fill="none" stroke="#8B0000" stroke-width="2.5" stroke-linejoin="round"/>
  <path d="M28,38 L28,78" fill="none" stroke="#8B0000" stroke-width="2.5" stroke-linecap="round"/>
  <path d="M22,50 L34,50" fill="none" stroke="#8B0000" stroke-width="2" stroke-linecap="round"/>
  <path d="M48,22 L52,18 L72,18 L78,24 Q82,32 75,38 L70,32 L75,42 L68,48 L65,36 L60,48 L55,38 L58,30 L50,28 L48,22Z" fill="none" stroke="#8B0000" stroke-width="2.5" stroke-linejoin="round"/>
  <path d="M60,48 L60,82" fill="none" stroke="#8B0000" stroke-width="2.5" stroke-linecap="round"/>
  <path d="M52,62 L68,62" fill="none" stroke="#8B0000" stroke-width="2" stroke-linecap="round"/>
  <path d="M52,72 L68,72" fill="none" stroke="#8B0000" stroke-width="2" stroke-linecap="round"/>
  <path d="M52,82 L68,82" fill="none" stroke="#8B0000" stroke-width="2" stroke-linecap="round"/>
</svg>