<svg xmlns="http://www.w3.org/2000/svg" viewBox="0 0 100 100" width="512" height="512">
  <rect width="100" height="100" fill="#F5E6D3"/>
  <g stroke="#8B0000" fill="none" stroke-linecap="round">
    <path d="M18,30 L18,80" stroke-width="3"/>
    <path d="M18,42 L8,55" stroke-width="2"/>
    <path d="M18,48 L28,58" stroke-width="2"/>
    <path d="M18,62 L14,73" stroke-width="1.5"/>
    <path d="M18,66 L24,74" stroke-width="1.5"/>
    <path d="M50,22 L50,82" stroke-width="3.5"/>
    <path d="M50,38 L32,52" stroke-width="2.5"/>
    <path d="M50,45 L66,56" stroke-width="2.5"/>
    <path d="M50,62 L42,74" stroke-width="2"/>
    <path d="M50,68 L58,76" stroke-width="2"/>
    <path d="M82,28 L82,78" stroke-width="3"/>
    <path d="M82,40 L72,52" stroke-width="2"/>
    <path d="M82,46 L90,56" stroke-width="2"/>
    <path d="M82,60 L78,72" stroke-width="1.5"/>
    <path d="M82,64 L86,73" stroke-width="1.5"/>
  </g>
</svg>