<svg xmlns="http://www.w3.org/2000/svg" viewBox="0 0 100 100" width="512" height="512">
  <rect width="100" height="100" fill="#F5E6D3"/>
  <g stroke="#6B3A1F" fill="none">
    <path d="M20,30 Q24,16 32,20 L34,32 Q26,38 20,30Z" fill="none" stroke="#6B3A1F" stroke-width="4" stroke-linejoin="round"/><path d="M30,40 L30,78" fill="none" stroke="#6B3A1F" stroke-width="4" stroke-linecap="round"/><path d="M48,22 L52,18 L70,18 L76,24 Q78,30 74,36 L70,30 L72,42 L66,46 L64,34 L58,44 L54,36 L56,28 L48,22Z" fill="none" stroke="#6B3A1F" stroke-width="4.5" stroke-linejoin="round"/><path d="M60,46 L60,82" fill="none" stroke="#6B3A1F" stroke-width="3.5" stroke-linecap="round"/><path d="M52,62 L68,62" fill="none" stroke="#6B3A1F" stroke-width="2.5" stroke-linecap="round"/><path d="M52,72 L68,72" fill="none" stroke="#6B3A1F" stroke-width="2.5" stroke-linecap="round"/>
  </g>
</svg>